<svg width="226" height="226" viewBox="0 0 226 226" fill="none" xmlns="http://www.w3.org/2000/svg">
<path d="M112.087 150.662C119.884 150.662 126.212 156.991 126.212 164.788C126.212 172.586 119.884 178.914 112.087 178.914C104.29 178.914 97.9618 172.586 97.9618 164.788C97.9618 156.991 104.29 150.662 112.087 150.662ZM121.503 131.828C121.503 126.545 125.345 120.292 130.242 117.589C144.367 109.811 151.966 93.8295 149.16 77.8203C146.495 62.6303 134.028 50.1525 118.829 47.4875C107.699 45.5663 96.4174 48.5422 87.8577 55.7181C79.3168 62.9034 74.4107 73.413 74.4107 84.563C74.4107 89.7707 78.6294 93.9802 83.8274 93.9802C89.0254 93.9802 93.244 89.7707 93.244 84.563C93.244 78.988 95.6924 73.7332 99.9675 70.1358C104.309 66.5008 109.874 65.0317 115.571 66.0394C122.982 67.3389 129.3 73.6673 130.6 81.0692C132.041 89.2716 128.33 97.1255 121.146 101.081C110.26 107.08 102.661 119.717 102.661 131.819C102.661 137.026 106.879 141.236 112.077 141.236C117.275 141.236 121.494 137.026 121.494 131.819L121.503 131.828ZM225.991 178.914V116.195C225.991 55.1813 179.811 4.26249 120.863 0.250759C88.1402 -1.9152 56.1236 10.0258 33.034 33.1451C9.94432 56.2737 -1.996 88.3016 0.273412 121.036C4.41674 180.873 57.263 226 123.198 226H178.917C204.878 226 225.991 204.877 225.991 178.914ZM119.592 19.0475C168.7 22.3812 207.157 65.0505 207.157 116.186V178.905C207.157 194.481 194.482 207.156 178.907 207.156H123.189C66.3595 207.156 22.5626 170.391 19.0502 119.727C17.1575 92.4264 27.1015 65.7192 46.3491 46.4516C64.0712 28.7001 88.112 18.8215 113.132 18.8215C115.279 18.8215 117.435 18.8968 119.582 19.0381L119.592 19.0475Z" fill="#00051B"/>
</svg>
