<svg width="239" height="239" viewBox="0 0 239 239" fill="none" xmlns="http://www.w3.org/2000/svg">
<g clip-path="url(#clip0_10_8)">
<path d="M119.5 21.5299C151.406 21.5299 155.191 21.6494 167.788 22.227C180.813 22.8245 194.227 25.7921 203.718 35.2824C213.298 44.8623 216.175 58.1467 216.773 71.212C217.351 83.8093 217.47 87.5935 217.47 119.5C217.47 151.406 217.351 155.191 216.773 167.788C216.185 180.744 213.148 194.287 203.718 203.718C194.138 213.298 180.863 216.175 167.788 216.773C155.191 217.351 151.406 217.47 119.5 217.47C87.5935 217.47 83.8093 217.351 71.212 216.773C58.3558 216.185 44.6332 213.078 35.2824 203.718C25.7522 194.188 22.8245 180.774 22.227 167.788C21.6494 155.191 21.5299 151.406 21.5299 119.5C21.5299 87.5935 21.6494 83.8093 22.227 71.212C22.8145 58.306 25.8817 44.683 35.2824 35.2824C44.8424 25.7224 58.1766 22.8245 71.212 22.227C83.8093 21.6494 87.5935 21.5299 119.5 21.5299ZM119.5 0C87.0458 0 82.9728 0.139417 70.2262 0.717C51.7535 1.56346 33.4102 6.70196 20.0561 20.0561C6.65217 33.46 1.56346 51.7634 0.717 70.2262C0.139417 82.9728 0 87.0458 0 119.5C0 151.954 0.139417 156.027 0.717 168.774C1.56346 187.227 6.72187 205.62 20.0561 218.944C33.45 232.338 51.7833 237.437 70.2262 238.283C82.9728 238.861 87.0458 239 119.5 239C151.954 239 156.027 238.861 168.774 238.283C187.237 237.437 205.6 232.288 218.944 218.944C232.358 205.53 237.437 187.237 238.283 168.774C238.861 156.027 239 151.954 239 119.5C239 87.0458 238.861 82.9728 238.283 70.2262C237.437 51.7535 232.288 33.4002 218.944 20.0561C205.57 6.68204 187.187 1.5535 168.774 0.717C156.027 0.139417 151.954 0 119.5 0Z" fill="#00051B"/>
<path d="M119.5 58.1367C85.6118 58.1367 58.1367 85.6118 58.1367 119.5C58.1367 153.388 85.6118 180.863 119.5 180.863C153.388 180.863 180.863 153.388 180.863 119.5C180.863 85.6118 153.388 58.1367 119.5 58.1367ZM119.5 159.333C97.502 159.333 79.6666 141.498 79.6666 119.5C79.6666 97.502 97.502 79.6667 119.5 79.6667C141.498 79.6667 159.333 97.502 159.333 119.5C159.333 141.498 141.498 159.333 119.5 159.333Z" fill="#00051B"/>
<path d="M183.293 70.0469C191.213 70.0469 197.633 63.6267 197.633 55.7069C197.633 47.7871 191.213 41.3669 183.293 41.3669C175.373 41.3669 168.953 47.7871 168.953 55.7069C168.953 63.6267 175.373 70.0469 183.293 70.0469Z" fill="#00051B"/>
</g>
<defs>
<clipPath id="clip0_10_8">
<rect width="239" height="239" fill="white"/>
</clipPath>
</defs>
</svg>
