<svg width="205" height="205" viewBox="0 0 205 205" fill="none" xmlns="http://www.w3.org/2000/svg">
<g clip-path="url(#clip0_11_16)">
<path d="M187.917 124.17V111.042C187.917 92.1988 172.593 76.875 153.75 76.875C134.907 76.875 119.583 92.1988 119.583 111.042V124.17C109.376 130.09 102.5 141.134 102.5 153.75V170.833C102.5 189.676 117.824 205 136.667 205H170.833C189.676 205 205 189.676 205 170.833V153.75C205 141.134 198.124 130.09 187.917 124.17ZM136.667 111.042C136.667 101.62 144.329 93.9583 153.75 93.9583C163.171 93.9583 170.833 101.62 170.833 111.042V119.583H136.667V111.042ZM187.917 170.833C187.917 180.255 180.255 187.917 170.833 187.917H136.667C127.245 187.917 119.583 180.255 119.583 170.833V153.75C119.583 144.329 127.245 136.667 136.667 136.667H170.833C180.255 136.667 187.917 144.329 187.917 153.75V170.833ZM166.563 162.292C166.563 169.364 160.823 175.104 153.75 175.104C146.678 175.104 140.938 169.364 140.938 162.292C140.938 155.219 146.678 149.479 153.75 149.479C160.823 149.479 166.563 155.219 166.563 162.292ZM68.3333 102.5C96.5977 102.5 119.583 79.5144 119.583 51.25C119.583 22.9856 96.5977 0 68.3333 0C40.069 0 17.0833 22.9856 17.0833 51.25C17.0833 79.5144 40.069 102.5 68.3333 102.5ZM68.3333 17.0833C87.1763 17.0833 102.5 32.4071 102.5 51.25C102.5 70.0929 87.1763 85.4167 68.3333 85.4167C49.4904 85.4167 34.1667 70.0929 34.1667 51.25C34.1667 32.4071 49.4904 17.0833 68.3333 17.0833ZM85.3313 129.927C84.665 134.6 80.3515 137.863 75.6706 137.188C73.2448 136.838 70.7677 136.667 68.3333 136.667C40.069 136.667 17.0833 159.652 17.0833 187.917V196.458C17.0833 201.173 13.2567 205 8.54167 205C3.82667 205 0 201.173 0 196.458V187.917C0 150.239 30.656 119.583 68.3333 119.583C71.5706 119.583 74.8506 119.814 78.0794 120.275C82.7517 120.941 85.9975 125.264 85.3398 129.936L85.3313 129.927Z" fill="#00051B"/>
</g>
<defs>
<clipPath id="clip0_11_16">
<rect width="205" height="205" fill="white"/>
</clipPath>
</defs>
</svg>
