<svg width="173" height="173" viewBox="0 0 173 173" fill="none" xmlns="http://www.w3.org/2000/svg">
<path d="M79.2933 165.792C79.2933 169.771 76.0639 173 72.0848 173H36.0424C16.1686 173 0 156.832 0 136.958V36.0417C0 16.1683 16.1686 0 36.0424 0H93.7103C113.584 0 129.753 16.1683 129.753 36.0417V129.75C129.753 133.729 126.53 136.958 122.544 136.958C118.558 136.958 115.336 133.729 115.336 129.75V36.0417C115.336 24.1191 105.633 14.4167 93.7103 14.4167H36.0424C24.1196 14.4167 14.417 24.1191 14.417 36.0417V136.958C14.417 148.881 24.1196 158.583 36.0424 158.583H72.0848C76.0639 158.583 79.2933 161.813 79.2933 165.792ZM93.7103 36.0417H36.0424C32.0633 36.0417 28.8339 39.271 28.8339 43.25C28.8339 47.229 32.0633 50.4583 36.0424 50.4583H93.7103C97.6966 50.4583 100.919 47.229 100.919 43.25C100.919 39.271 97.6966 36.0417 93.7103 36.0417ZM93.7103 72.0833H36.0424C32.0633 72.0833 28.8339 75.3127 28.8339 79.2917C28.8339 83.2707 32.0633 86.5 36.0424 86.5H93.7103C97.6966 86.5 100.919 83.2707 100.919 79.2917C100.919 75.3127 97.6966 72.0833 93.7103 72.0833ZM72.0848 108.125H36.0424C32.0633 108.125 28.8339 111.354 28.8339 115.333C28.8339 119.312 32.0633 122.542 36.0424 122.542H72.0848C76.0639 122.542 79.2933 119.312 79.2933 115.333C79.2933 111.354 76.0639 108.125 72.0848 108.125ZM170.805 117.366C167.95 114.598 163.387 114.67 160.612 117.525L123.798 155.556C119.87 159.65 112.784 159.542 108.978 155.34L91.7423 137.066C89.0175 134.169 84.4474 134.039 81.5496 136.764C78.6517 139.488 78.522 144.059 81.2468 146.956L98.4823 165.229C107.651 175.336 124.584 175.566 134.071 165.669L170.971 127.551C173.739 124.69 173.667 120.134 170.805 117.366Z" fill="#00051B"/>
</svg>
