<svg width="249" height="249" viewBox="0 0 249 249" fill="none" xmlns="http://www.w3.org/2000/svg">
<g clip-path="url(#clip0_10_5)">
<path d="M71.1829 63.8996L163.271 184.301H177.381L86.3407 63.8996H71.1829Z" fill="#00051B"/>
<path d="M124.5 0C55.7449 0 0 55.7449 0 124.5C0 193.255 55.7449 249 124.5 249C193.255 249 249 193.255 249 124.5C249 55.7449 193.255 0 124.5 0ZM156.279 199.532L116.127 147.086L70.2491 199.532H44.7474L104.227 131.534L41.5 49.468H94.0183L130.268 97.4109L172.215 49.468H197.685L142.065 113.025L207.5 199.522L156.279 199.532Z" fill="#00051B"/>
</g>
<defs>
<clipPath id="clip0_10_5">
<rect width="249" height="249" fill="white"/>
</clipPath>
</defs>
</svg>
